<svg xmlns="http://www.w3.org/2000/svg" viewBox="0 0 32 32" width="32" height="32">
  <defs>
    <linearGradient id="g1" x1="0%" y1="0%" x2="100%" y2="100%">
      <stop offset="0%" stop-color="#FBBF24"/>
      <stop offset="100%" stop-color="#D97706"/>
    </linearGradient>
    <linearGradient id="g2" x1="100%" y1="0%" x2="0%" y2="100%">
      <stop offset="0%" stop-color="#FDE68A"/>
      <stop offset="100%" stop-color="#F59E0B"/>
    </linearGradient>
  </defs>
  <!-- Large gear: 8 teeth, center (11.5, 12.5) -->
  <path d="M18.47,10.68 L20.91,11.20 L20.91,13.80 L18.47,14.32 L17.71,16.14 L19.07,18.23 L17.23,20.07 L15.14,18.71 L13.32,19.47 L12.80,21.91 L10.20,21.91 L9.68,19.47 L7.86,18.71 L5.77,20.07 L3.93,18.23 L5.29,16.14 L4.53,14.32 L2.09,13.80 L2.09,11.20 L4.53,10.68 L5.29,8.86 L3.93,6.77 L5.77,4.93 L7.86,6.29 L9.68,5.53 L10.20,3.09 L12.80,3.09 L13.32,5.53 L15.14,6.29 L17.23,4.93 L19.07,6.77 L17.71,8.86 Z" fill="url(#g1)"/>
  <circle cx="11.5" cy="12.5" r="3.2" fill="#1E1B4B"/>
  <!-- Small gear: 6 teeth, center (22.6, 21.5) -->
  <path d="M27.29,19.80 L29.26,20.23 L29.26,22.71 L27.29,23.14 L26.38,24.71 L26.99,26.64 L24.85,27.88 L23.49,26.38 L21.66,26.38 L20.31,27.88 L18.16,26.64 L18.77,24.71 L17.86,23.14 L15.89,22.71 L15.89,20.23 L17.86,19.80 L18.77,18.22 L18.16,16.30 L20.31,15.06 L21.66,16.55 L23.49,16.55 L24.85,15.06 L26.99,16.30 L26.38,18.22 Z" fill="url(#g2)"/>
  <circle cx="22.6" cy="21.5" r="2.2" fill="#1E1B4B"/>
</svg>
